<svg width="800" height="509" viewBox="0 0 800 509" fill="none" xmlns="http://www.w3.org/2000/svg">
<path d="M532.758 27.5951C532.758 12.3552 520.403 0 505.163 0H27.5951C12.3552 0 0 12.3552 0 27.5951C0 42.8349 12.3552 55.1902 27.5951 55.1902H505.163C520.403 55.1902 532.758 42.8349 532.758 27.5951Z" fill="white"/>
<path d="M772.405 113.361H215.727C200.488 113.361 188.132 125.716 188.132 140.956C188.132 156.196 200.488 168.551 215.727 168.551H772.405C787.645 168.551 800 156.196 800 140.956C800 125.716 787.645 113.361 772.405 113.361Z" fill="white"/>
<path d="M642.156 281.908C657.396 281.908 669.751 269.552 669.751 254.313C669.751 239.073 657.396 226.718 642.156 226.718H82.5866C67.3467 226.718 54.9915 239.073 54.9915 254.313C54.9915 269.552 67.3467 281.908 82.5866 281.908H642.156Z" fill="white"/>
<path d="M733.812 340.078H175.207C159.967 340.078 147.612 352.433 147.612 367.673C147.612 382.913 159.967 395.268 175.207 395.268H733.812C749.052 395.268 761.407 382.913 761.407 367.673C761.407 352.433 749.052 340.078 733.812 340.078Z" fill="white"/>
<path d="M462.711 453.443H92.2338C76.994 453.443 64.6387 465.798 64.6387 481.038C64.6387 496.277 76.994 508.633 92.2338 508.633H462.707C477.947 508.633 490.302 496.277 490.302 481.038C490.306 465.798 477.951 453.443 462.711 453.443Z" fill="white"/>
</svg>
