<svg width="1627" height="1707" viewBox="0 0 1627 1707" fill="none" xmlns="http://www.w3.org/2000/svg">
<g clip-path="url(#clip0_1_9)">
<path d="M666 57.8667C644 89.7333 626 116.4 626 117.333C626 118.133 651.867 135.467 683.333 155.867L740.667 192.8L741.067 233.733L741.333 274.8L735.733 271.467C712 257.867 625.067 209.333 624.133 209.333C622.267 209.333 547.6 330.933 549.067 331.867C549.867 332.267 577.733 348.8 611.067 368.667L671.6 404.667L670.933 431.333C670.667 446 670 465.467 669.6 474.533L668.667 491.2L645.333 503.6C632.533 510.533 615.6 519.467 607.867 523.6L593.867 531.067L555.2 510.667C534 499.467 516.4 490 516.133 489.867C515.867 489.6 517.6 456 519.867 415.2C522.133 374.267 523.733 340.667 523.467 340.4C522.933 339.733 516.4 339.067 430.133 329.333C397.2 325.6 370.133 322.667 370 322.933C369.867 323.2 369.067 358.933 368.267 402.533C367.467 446 366.533 481.867 366.267 482.267C365.6 482.933 296.267 445.733 293.6 443.467C292.4 442.267 291.067 421.467 288.533 365.333C286.667 323.2 284.933 288 284.8 287.333C284.4 286.133 142 292.133 140.8 293.467C140.533 293.733 141.2 303.6 142.133 315.333C149.6 401.733 152.133 431.6 152.8 442L153.733 454L87.8667 484.533C51.6 501.333 21.4667 515.467 20.8 516.133C20.2667 516.667 33.7334 546.8 50.8 583.2L81.8667 649.2L110 634.8C125.333 626.8 153.333 612.533 172 602.933L206 585.6L240.4 605.333C259.333 616.133 275.067 625.333 275.467 625.733C275.867 626 250 641.867 218.133 660.667L160.133 695.067L169.067 711.867C213.6 795.6 227.467 821.333 228.533 821.333C229.067 821.333 257.6 805.733 291.6 786.533C325.733 767.467 354.4 752.133 355.2 752.533C356 752.933 372.533 762.933 392 774.933L427.333 796.667L426.933 835.333C426.667 856.667 426.267 875.867 425.867 878C425.2 881.6 421.333 884.4 387.2 905.6L349.333 929.2L341.6 924.133C299.067 895.867 224.8 848 223.867 848.267C222.533 848.8 131.6 972 132.133 972.533C132.4 972.8 163.467 991.333 201.2 1014C248.267 1042.13 269.067 1055.33 267.867 1056.13C266.8 1056.67 250.533 1066.67 231.6 1078.4L197.2 1099.6L127.733 1063.6C89.6 1043.87 58 1028.27 57.3334 1028.8C56.8 1029.47 43.6 1054.67 28.1334 1084.93L-0.133301 1139.73L0.266699 1150L0.666699 1160.27L68.9334 1192.27C133.867 1222.8 137.333 1224.53 137.2 1227.87C137.2 1229.73 134.4 1262.93 130.933 1301.6L124.533 1372L128.667 1372.67C137.067 1374 269.333 1384.4 270 1383.73C270.667 1383.07 272 1360.8 274.533 1308C275.333 1292.93 276.267 1272.8 276.8 1263.07L277.6 1245.6L312.267 1225.33C331.333 1214.27 347.2 1205.33 347.467 1205.6C347.733 1205.87 348.4 1236.13 348.8 1272.93L349.733 1339.6L367.2 1340.4C406.933 1342.27 492 1344.4 492.933 1343.47C493.467 1343.07 494.267 1310.8 494.667 1271.87C495.2 1232 496.133 1200.8 496.8 1200.13C497.467 1199.47 514.267 1189.87 534.267 1178.8L570.533 1158.67L599.6 1176.13C615.6 1185.87 632 1196 636.133 1198.8L643.6 1203.87L644.4 1220.93C644.933 1230.27 645.733 1250.4 646.133 1265.47L647.067 1292.93L580.533 1326.53C544 1345.07 513.867 1360.4 513.733 1360.53C513.333 1360.8 574.533 1501.6 575.333 1502.4C575.6 1502.67 607.2 1485.47 645.6 1464.13L715.333 1425.33L716.133 1437.6C716.667 1444.4 717.333 1463.47 717.867 1480L718.667 1510L652.8 1552C610.933 1578.67 586.933 1594.67 587.333 1595.73C587.733 1596.67 603.733 1622 622.933 1652L658 1706.53L668.267 1706.67H678.4L724.933 1674.27C750.4 1656.53 777.067 1637.87 784.133 1632.93L796.933 1624.13L855.867 1665.33C890.8 1689.87 916 1706.67 917.733 1706.67C920.133 1706.53 928.933 1694.67 960.667 1648.8C982.667 1616.93 1000.67 1590.27 1000.67 1589.33C1000.67 1588.53 974.933 1571.2 943.333 1550.8L886 1513.87L885.6 1472.93L885.333 1431.87L890.933 1435.2C914.667 1448.8 1001.6 1497.33 1002.53 1497.33C1003.6 1497.33 1079.2 1376 1078.4 1375.47C1078.27 1375.2 1051.87 1359.6 1020 1340.67C988.133 1321.73 960.533 1305.2 958.667 1304L955.333 1301.6L957.067 1258.53C958.133 1234.8 958.933 1215.33 959.067 1215.2C959.2 1215.07 975.6 1206 995.6 1195.07L1031.73 1175.07L1070.27 1195.47C1091.33 1206.8 1109.2 1216.13 1109.87 1216.4C1110.4 1216.53 1109.07 1250.27 1106.8 1291.33C1104.53 1332.27 1102.93 1366 1103.2 1366.27C1103.73 1366.93 1110.27 1367.6 1196.53 1377.33C1229.47 1381.07 1256.53 1384 1256.67 1383.73C1256.8 1383.47 1257.6 1347.73 1258.4 1304.13C1259.2 1260.67 1260.13 1224.8 1260.4 1224.4C1261.07 1223.73 1330.4 1260.93 1333.07 1263.2C1334.27 1264.4 1335.6 1285.2 1338.13 1341.33C1340 1383.47 1341.73 1418.67 1341.87 1419.33C1342.27 1420.53 1484.67 1414.53 1485.87 1413.2C1486.13 1412.93 1485.47 1403.07 1484.53 1391.33C1477.07 1304.93 1474.53 1275.07 1473.87 1264.67L1472.93 1252.67L1538.8 1222.13C1575.07 1205.33 1605.2 1191.2 1605.87 1190.53C1606.4 1190 1592.93 1159.87 1575.87 1123.47L1544.8 1057.47L1516.67 1071.87C1501.33 1079.87 1473.33 1094.13 1454.67 1103.73L1420.67 1121.07L1386.27 1101.33C1367.33 1090.53 1351.6 1081.33 1351.2 1080.93C1350.8 1080.67 1376.67 1064.8 1408.53 1046L1466.53 1011.6L1457.6 994.8C1413.07 911.067 1399.2 885.333 1398.13 885.333C1397.6 885.333 1369.2 900.933 1335.07 920L1273.07 954.8L1264.13 949.467C1259.33 946.4 1242.8 936.133 1227.33 926.267L1199.33 908.667L1199.73 876C1199.87 858 1200.4 839.067 1200.8 834L1201.6 824.533L1239.47 801.067L1277.33 777.467L1285.07 782.533C1327.6 810.8 1401.87 858.667 1402.8 858.4C1404.13 857.867 1495.07 734.667 1494.53 734.133C1494.27 733.867 1463.2 715.333 1425.47 692.667C1378.4 664.533 1357.6 651.333 1358.8 650.533C1359.87 650 1376.13 640 1395.07 628.267L1429.47 607.067L1498.93 643.067C1537.07 662.8 1568.67 678.4 1569.33 677.867C1569.87 677.2 1583.07 652 1598.53 621.733L1626.8 566.933L1626.4 556.667L1626 546.4L1557.73 514.4C1492.8 483.867 1489.33 482.133 1489.47 478.8C1489.47 476.933 1492.27 443.733 1495.73 405.067L1502.13 334.667L1498 334C1489.6 332.667 1357.33 322.267 1356.67 322.933C1356 323.6 1354.67 345.867 1352.13 398.667C1351.33 413.733 1350.4 433.867 1349.87 443.6L1349.07 461.067L1314.4 481.333C1295.33 492.4 1279.47 501.333 1279.2 501.067C1278.93 500.8 1278.27 470.533 1277.87 433.733L1276.93 367.067L1259.47 366.267C1219.6 364.4 1134.67 362.267 1133.73 363.2C1133.2 363.733 1132.4 395.867 1132 434.667C1131.47 473.467 1130.93 505.467 1130.53 505.733C1129.07 507.067 1051.87 544 1050.67 544C1048.93 544 1037.73 537.067 1007.87 517.6L983.067 501.333L982.267 485.6C981.733 477.067 980.933 457.333 980.533 441.867L979.6 413.733L1046.13 380C1082.67 361.6 1112.8 346.267 1112.93 346.133C1113.33 345.867 1052.13 205.067 1051.33 204.267C1051.07 204 1019.47 221.2 981.067 242.533L911.333 281.333L910.533 269.067C910 262.267 909.333 243.2 908.8 226.667L908 196.667L973.867 154.667C1016.93 127.2 1039.73 112 1039.33 110.933C1038.93 109.867 1022.93 84.6667 1003.73 54.6667L968.667 0.133326L958.4 -7.62939e-06H948.267L901.733 32.4C876.267 50.1333 849.6 68.8 842.533 73.7333L829.733 82.5333L770.8 41.3333C735.867 16.8 710.667 -7.62939e-06 708.933 -7.62939e-06C706.533 0.133326 697.733 12 666 57.8667Z" fill="white"/>
</g>
<defs>
<clipPath id="clip0_1_9">
<rect width="1626.67" height="1706.67" fill="white"/>
</clipPath>
</defs>
</svg>
